<?xml version="1.0"?>
<svg xmlns="http://www.w3.org/2000/svg" xmlns:xlink="http://www.w3.org/1999/xlink" xmlns:svgjs="http://svgjs.com/svgjs" version="1.1" width="512" height="512" x="0" y="0" viewBox="0 0 512 512" style="enable-background:new 0 0 512 512" xml:space="preserve" class=""><g>
<g xmlns="http://www.w3.org/2000/svg">
	<g>
		<path d="M405.333,0H106.667C83.146,0,64,19.135,64,42.667v426.667C64,492.865,83.146,512,106.667,512h298.667    C428.854,512,448,492.865,448,469.333V42.667C448,19.135,428.854,0,405.333,0z M128,117.333c0-5.896,4.771-10.667,10.667-10.667    h106.667c5.896,0,10.667,4.771,10.667,10.667c0,5.896-4.771,10.667-10.667,10.667H138.667C132.771,128,128,123.229,128,117.333z     M352,405.333H160c-5.896,0-10.667-4.771-10.667-10.667S154.104,384,160,384h192c5.896,0,10.667,4.771,10.667,10.667    S357.896,405.333,352,405.333z M352,320H160c-5.896,0-10.667-4.771-10.667-10.667c0-5.896,4.771-10.667,10.667-10.667h192    c5.896,0,10.667,4.771,10.667,10.667C362.667,315.229,357.896,320,352,320z M352,234.667H160c-5.896,0-10.667-4.771-10.667-10.667    s4.771-10.667,10.667-10.667h192c5.896,0,10.667,4.771,10.667,10.667S357.896,234.667,352,234.667z M405.333,138.667    c0,3.698-1.917,7.125-5.063,9.073c-1.708,1.063-3.646,1.594-5.604,1.594c-1.625,0-3.271-0.375-4.771-1.125L352,129.26    l-37.896,18.948c-3.313,1.646-7.25,1.469-10.375-0.469c-3.146-1.948-5.063-5.375-5.063-9.073V21.333h106.667V138.667z" fill="#f93b4d" data-original="#000000" style="" class=""/>
	</g>
</g>
<g xmlns="http://www.w3.org/2000/svg">
</g>
<g xmlns="http://www.w3.org/2000/svg">
</g>
<g xmlns="http://www.w3.org/2000/svg">
</g>
<g xmlns="http://www.w3.org/2000/svg">
</g>
<g xmlns="http://www.w3.org/2000/svg">
</g>
<g xmlns="http://www.w3.org/2000/svg">
</g>
<g xmlns="http://www.w3.org/2000/svg">
</g>
<g xmlns="http://www.w3.org/2000/svg">
</g>
<g xmlns="http://www.w3.org/2000/svg">
</g>
<g xmlns="http://www.w3.org/2000/svg">
</g>
<g xmlns="http://www.w3.org/2000/svg">
</g>
<g xmlns="http://www.w3.org/2000/svg">
</g>
<g xmlns="http://www.w3.org/2000/svg">
</g>
<g xmlns="http://www.w3.org/2000/svg">
</g>
<g xmlns="http://www.w3.org/2000/svg">
</g>
</g></svg>
